<?xml version="1.0" encoding="utf-8"?>
<!-- Generator: Adobe Illustrator 26.1.0, SVG Export Plug-In . SVG Version: 6.00 Build 0)  -->
<svg version="1.1" xmlns="http://www.w3.org/2000/svg" xmlns:xlink="http://www.w3.org/1999/xlink" x="0px" y="0px"
	 viewBox="0 0 595.28 178.22" style="enable-background:new 0 0 595.28 178.22;" xml:space="preserve">
<style type="text/css">
	.st0{display:none;}
	.st1{display:inline;}
</style>
<g id="Layer_1">
	<path d="M119.9,144.19V92.92c0-3.77-1.44-7.1-4.32-9.99c-2.88-2.88-6.21-4.32-9.99-4.32c-4.47,0-10.13,1.59-16.99,4.77
		c1.09,3.28,1.64,6.46,1.64,9.54v51.27H73.7V92.92c0-3.77-1.44-7.1-4.32-9.99c-2.88-2.88-6.26-4.32-10.13-4.32
		c-4.67,0-10.28,1.39-16.84,4.17v61.4H25.86V74.14l16.84-6.11c6.86-2.18,12.67-3.28,17.44-3.28c7.85,0,14.55,2.34,20.12,7
		c11.92-4.67,20.67-7,26.23-7c8.44,0,15.55,2.73,21.31,8.2c5.76,5.47,8.64,12.12,8.64,19.97v51.27H119.9z"/>
	<path d="M157.01,45.68v-15.5h16.54v15.5H157.01z M157.01,144.19V68.63h16.54v75.56H157.01z"/>
	<path d="M216.92,146.87c-6.06,0-11.23-1.81-15.5-5.42c-4.27-3.72-6.41-8.46-6.41-14.25V30.18h16.54v95.53c0,4.87,2.53,7.3,7.6,7.3
		c4.97,0,9.19-1.04,12.67-3.13v13.82C227.45,145.82,222.48,146.87,216.92,146.87z"/>
	<path d="M242.55,45.68v-15.5h16.54v15.5H242.55z M242.55,144.19V68.63h16.54v75.56H242.55z"/>
	<path d="M312,147.92c-9.54,0-20.12-2.33-31.75-7V30.18h16.54v37.26c6.24-1.49,12.24-2.23,17.99-2.23
		c12.88,0,22.99,3.87,30.33,11.62c6.94,7.25,10.41,16.89,10.41,28.91c0,11.73-3.97,21.66-11.92,29.81
		C335.45,143.79,324.91,147.92,312,147.92z M313.87,79.06c-5.74,0-11.44,0.85-17.08,2.53v50.22c5.64,1.69,10.44,2.54,14.4,2.54
		c7.82,0,14.35-2.83,19.6-8.49c4.85-5.46,7.28-12.17,7.28-20.12c0-8.15-2.08-14.63-6.24-19.45
		C327.68,81.47,321.69,79.06,313.87,79.06z"/>
	<path d="M406.78,147.77c-13.02,0-23.1-4.17-30.25-12.52c-6.86-7.85-10.28-17.78-10.28-29.81c0-12.02,3.38-21.71,10.13-29.06
		c7.25-7.85,17.34-11.77,30.25-11.77c12.82,0,22.85,4.22,30.11,12.67c6.65,7.65,9.99,17.59,9.99,29.81
		c0,12.12-3.33,21.81-9.99,29.06C429.68,143.89,419.7,147.77,406.78,147.77z M406.63,78.47c-15.3,0-22.95,8.99-22.95,26.98
		c0,8.3,1.89,15.02,5.66,20.16c4.07,5.54,9.89,8.3,17.44,8.3c15,0,22.5-8.94,22.5-26.83c0-8.6-1.84-15.37-5.51-20.31
		C419.7,81.24,413.98,78.47,406.63,78.47z"/>
	<path d="M497.84,147.77c-13.02,0-23.1-4.17-30.26-12.52c-6.85-7.85-10.28-17.78-10.28-29.81c0-12.02,3.38-21.71,10.14-29.06
		c7.25-7.85,17.34-11.77,30.25-11.77c12.82,0,22.85,4.22,30.1,12.67c6.66,7.65,9.99,17.59,9.99,29.81c0,12.12-3.33,21.81-9.99,29.06
		C520.74,143.89,510.76,147.77,497.84,147.77z M497.69,78.47c-15.3,0-22.95,8.99-22.95,26.98c0,8.3,1.89,15.02,5.66,20.16
		c4.07,5.54,9.88,8.3,17.44,8.3c15,0,22.5-8.94,22.5-26.83c0-8.6-1.84-15.37-5.52-20.31C510.76,81.24,505.05,78.47,497.69,78.47z"/>
</g>
<g id="FR">
	<g>
		<path d="M573.96,128.92c0,3.29-1.02,5.88-3.07,7.78c-1.95,1.8-4.44,2.69-7.47,2.69c-3.06,0-5.56-0.9-7.51-2.69
			c-2.07-1.92-3.11-4.51-3.11-7.78c0-1.34,0.29-3.2,0.87-5.58h3.68c-0.68,2.17-1.02,4.04-1.02,5.58c0,1.9,0.67,3.42,2.01,4.55
			c1.34,1.14,3.03,1.71,5.07,1.71c2.04,0,3.72-0.57,5.03-1.71c1.34-1.14,2.01-2.66,2.01-4.55c0-1.54-0.34-3.4-1.02-5.58h3.67
			C573.66,125.72,573.96,127.58,573.96,128.92z"/>
		<path d="M573.92,110.29c0,3.31-1.06,5.88-3.19,7.7c-2,1.75-4.53,2.62-7.59,2.62c-3.06,0-5.53-0.86-7.4-2.58c-2-1.85-3-4.41-3-7.7
			c0-3.26,1.08-5.82,3.23-7.66c1.95-1.69,4.48-2.54,7.59-2.54c3.09,0,5.55,0.85,7.4,2.54C572.94,104.46,573.92,107,573.92,110.29z
			 M556.28,110.33c0,3.9,2.29,5.84,6.87,5.84c2.11,0,3.82-0.48,5.13-1.44c1.41-1.04,2.11-2.52,2.11-4.44c0-3.82-2.28-5.73-6.83-5.73
			c-2.19,0-3.91,0.47-5.17,1.4C556.99,107,556.28,108.46,556.28,110.33z"/>
		<path d="M573.01,72.32h-13.05c-0.96,0-1.81,0.37-2.54,1.1c-0.73,0.73-1.1,1.58-1.1,2.54c0,1.14,0.4,2.58,1.21,4.32
			c0.83-0.28,1.65-0.42,2.43-0.42h13.05v4.21h-13.05c-0.96,0-1.81,0.37-2.54,1.1c-0.73,0.74-1.1,1.59-1.1,2.58
			c0,1.19,0.35,2.62,1.06,4.29h15.63v4.21h-17.83l-1.55-4.29c-0.56-1.75-0.84-3.22-0.84-4.44c0-2,0.6-3.71,1.78-5.12
			c-1.19-3.03-1.78-5.26-1.78-6.68c0-2.15,0.7-3.96,2.09-5.43c1.39-1.47,3.08-2.2,5.08-2.2h13.05V72.32z"/>
		<path d="M573.01,147.66h-3.95v-4.21h3.95V147.66z"/>
	</g>
</g>
<g id="LU" class="st0">
	<g class="st1">
		<path d="M573.66,129.23c0,1.5-0.45,2.79-1.35,3.85c-0.92,1.06-2.1,1.59-3.54,1.59h-24.09v-4.11h23.72c1.21,0,1.81-0.63,1.81-1.89
			c0-1.23-0.26-2.28-0.78-3.14h3.43C573.4,126.62,573.66,127.85,573.66,129.23z"/>
		<path d="M573.92,111.34c0,2.37-0.67,4.28-2.02,5.71c-1.39,1.46-3.18,2.19-5.38,2.19H554.2v-4.11h12.32c1.18,0,2.14-0.37,2.87-1.12
			c0.73-0.75,1.09-1.71,1.09-2.89c0-1.42-0.36-3.03-1.07-4.83H554.2v-4.11h17.4c0.17,0.47,0.37,1.07,0.6,1.8
			c0.22,0.73,0.49,1.6,0.79,2.61c0.3,0.99,0.53,1.88,0.69,2.67C573.84,110.06,573.92,110.75,573.92,111.34z"/>
		<path d="M573.01,147.66h-3.95v-4.21h3.95V147.66z"/>
	</g>
</g>
<g id="BE" class="st0">
	<g class="st1">
		<g>
			<path d="M573.96,126.75c0,2.37-0.58,5-1.74,7.88h-27.49v-4.11h9.25c-0.37-1.55-0.56-3.04-0.56-4.46c0-3.2,0.96-5.71,2.89-7.53
				c1.8-1.72,4.19-2.58,7.18-2.58c2.91,0,5.38,0.99,7.4,2.96C572.94,120.93,573.96,123.55,573.96,126.75z M556.87,126.29
				c0,1.42,0.21,2.84,0.63,4.24h12.47c0.42-1.4,0.63-2.59,0.63-3.58c0-1.94-0.7-3.56-2.11-4.87c-1.36-1.2-3.02-1.81-5-1.81
				c-2.02,0-3.63,0.52-4.83,1.55C557.46,122.86,556.87,124.35,556.87,126.29z"/>
			<path d="M565.19,105.33c1.13,0,2.22-0.44,3.27-1.33c1.35-1.11,2.02-2.55,2.02-4.33c0-2.07-0.44-4.35-1.33-6.84h3.69
				c0.72,2.52,1.08,4.8,1.08,6.84c0,3.21-1,5.69-3,7.44c-1.87,1.65-4.3,2.48-7.29,2.48c-2.89,0-5.27-0.79-7.14-2.37
				c-2.12-1.75-3.18-4.25-3.18-7.51c0-2.22,0.74-4.11,2.22-5.66c1.48-1.58,3.27-2.37,5.37-2.37c1.33,0,2.38,0.49,3.14,1.48
				c0.76,0.99,1.15,2.17,1.15,3.55V105.33z M556.75,99.67c0,1.95,0.73,3.47,2.18,4.55c1.01,0.74,1.95,1.11,2.81,1.11v-8.25
				c0-0.86-0.41-1.29-1.22-1.29c-0.81,0-1.65,0.41-2.52,1.22C557.17,97.82,556.75,98.71,556.75,99.67z"/>
		</g>
		<path d="M573.01,147.66h-3.95v-4.21h3.95V147.66z"/>
	</g>
</g>
<g id="DE" class="st0">
	<g class="st1">
		<path d="M573.96,125.07c0,3.21-1.02,5.83-3.07,7.86c-2.02,1.98-4.49,2.97-7.4,2.97c-2.96,0-5.35-0.88-7.18-2.63
			c-1.92-1.8-2.89-4.3-2.89-7.51c0-1.43,0.19-2.92,0.56-4.48h-9.25v-4.11h27.49C573.38,120.06,573.96,122.69,573.96,125.07z
			 M556.87,125.53c0,1.95,0.6,3.44,1.81,4.48c1.21,1.04,2.81,1.55,4.81,1.55c1.97,0,3.65-0.62,5.03-1.85
			c1.38-1.26,2.07-2.87,2.07-4.85c0-0.99-0.21-2.18-0.63-3.59h-12.47C557.08,122.48,556.87,123.9,556.87,125.53z"/>
		<path d="M565.19,105.33c1.13,0,2.22-0.44,3.27-1.33c1.35-1.11,2.02-2.55,2.02-4.33c0-2.07-0.44-4.35-1.33-6.84h3.69
			c0.72,2.52,1.08,4.8,1.08,6.84c0,3.21-1,5.69-3,7.44c-1.87,1.65-4.3,2.48-7.29,2.48c-2.89,0-5.27-0.79-7.14-2.37
			c-2.12-1.75-3.18-4.25-3.18-7.51c0-2.22,0.74-4.11,2.22-5.66c1.48-1.58,3.27-2.37,5.37-2.37c1.33,0,2.38,0.49,3.14,1.48
			c0.76,0.99,1.15,2.17,1.15,3.55V105.33z M556.75,99.67c0,1.95,0.73,3.47,2.18,4.55c1.01,0.74,1.95,1.11,2.81,1.11v-8.25
			c0-0.86-0.41-1.29-1.22-1.29c-0.81,0-1.65,0.41-2.52,1.22C557.17,97.82,556.75,98.71,556.75,99.67z"/>
		<path d="M573.01,147.66h-3.95v-4.21h3.95V147.66z"/>
	</g>
</g>
<g id="ES" class="st0">
	<g class="st1">
		<path d="M565.18,131.64c1.13,0,2.22-0.44,3.27-1.33c1.35-1.11,2.02-2.55,2.02-4.33c0-2.07-0.44-4.35-1.33-6.84h3.69
			c0.72,2.52,1.08,4.8,1.08,6.84c0,3.21-1,5.69-3,7.44c-1.87,1.65-4.3,2.48-7.29,2.48c-2.89,0-5.27-0.79-7.14-2.37
			c-2.12-1.75-3.18-4.25-3.18-7.51c0-2.22,0.74-4.11,2.22-5.66c1.48-1.58,3.27-2.37,5.37-2.37c1.33,0,2.38,0.49,3.14,1.48
			c0.76,0.99,1.15,2.17,1.15,3.55V131.64z M556.74,125.97c0,1.95,0.73,3.47,2.18,4.55c1.01,0.74,1.95,1.11,2.81,1.11v-8.25
			c0-0.86-0.41-1.29-1.22-1.29c-0.81,0-1.65,0.41-2.52,1.22C557.16,124.13,556.74,125.01,556.74,125.97z"/>
		<path d="M573.95,105.33c0,2.12-0.33,4.14-1,6.07h-3.85c0.99-2.07,1.48-4.05,1.48-5.92c0-1.04-0.23-1.9-0.68-2.59
			c-0.46-0.69-1.02-1.04-1.68-1.04c-0.91,0-1.78,0.83-2.59,2.48c-1.38,2.84-2.15,4.35-2.29,4.55c-1.11,1.65-2.5,2.48-4.18,2.48
			c-2,0-3.5-0.78-4.51-2.33c-0.86-1.31-1.29-2.92-1.29-4.85c0-1.63,0.32-3.44,0.96-5.44h3.66c-0.79,1.94-1.18,3.66-1.18,5.16
			c0,2.24,0.72,3.35,2.15,3.35c0.76,0,1.53-0.82,2.29-2.47c1.16-2.53,1.94-4.08,2.33-4.64c1.18-1.65,2.68-2.47,4.48-2.47
			c2.07,0,3.64,0.9,4.7,2.7C573.54,101.78,573.95,103.43,573.95,105.33z"/>
	</g>
	<path class="st1" d="M573.01,147.66h-3.95v-4.21h3.95V147.66z"/>
</g>
<g id="IT" class="st0">
	<g class="st1">
		<path d="M546.52,133.8h-4.16v-4.44h4.16V133.8z M572.95,133.8h-20.27v-4.44h20.27V133.8z"/>
		<path d="M573.95,112.05c0,1.63-0.48,3.01-1.44,4.16c-0.99,1.15-2.25,1.72-3.8,1.72H556.4v4h-3.72v-4h-6.24v-4.44h6.24v-5.52h3.72
			v5.52h12.08c0.56,0,0.99-0.18,1.3-0.54c0.31-0.36,0.46-0.79,0.46-1.3c0-0.77-0.41-1.99-1.24-3.64h3.91
			C573.6,109.48,573.95,110.83,573.95,112.05z"/>
		<path d="M573.01,147.66h-3.95v-4.21h3.95V147.66z"/>
	</g>
</g>
</svg>
