<?xml version="1.0" encoding="utf-8"?>
<!-- Generator: Adobe Illustrator 25.2.1, SVG Export Plug-In . SVG Version: 6.00 Build 0)  -->
<svg version="1.1" id="Calque_2" xmlns="http://www.w3.org/2000/svg" xmlns:xlink="http://www.w3.org/1999/xlink" x="0px" y="0px"
	 viewBox="0 0 2122 2122" style="enable-background:new 0 0 2122 2122;" xml:space="preserve">
<style type="text/css">
	.st0{fill:#12100B;}
</style>
<path class="st0" d="M1512.96,1452.24c-24.36-76.04-59.28-144.4-103.79-203.19c-44.83-59.2-97.16-105.75-155.53-138.35
	c-28.29-15.8-57.41-27.98-87.19-36.5c8.86-2.91,17.63-6.17,26.28-9.83c40.3-17.04,76.48-41.44,107.55-72.51
	c31.07-31.07,55.47-67.26,72.51-107.55c17.65-41.73,26.6-86.05,26.6-131.72s-8.95-89.99-26.6-131.72
	c-17.04-40.3-41.44-76.48-72.51-107.55c-31.07-31.07-67.26-55.47-107.55-72.51c-41.73-17.65-86.05-26.6-131.72-26.6
	c-45.67,0-89.99,8.95-131.72,26.6c-40.3,17.04-76.48,41.44-107.55,72.51c-31.07,31.07-55.47,67.26-72.51,107.55
	c-17.65,41.73-26.6,86.05-26.6,131.72s8.95,89.99,26.6,131.72c17.04,40.3,41.44,76.48,72.51,107.55
	c31.07,31.07,67.26,55.47,107.55,72.51c8.65,3.66,17.42,6.92,26.28,9.83c-29.78,8.52-58.9,20.7-87.19,36.5
	c-58.38,32.61-110.71,79.16-155.53,138.35c-44.52,58.79-79.44,127.15-103.79,203.19c-25.13,78.47-37.88,161.77-37.88,247.61h40
	c0-331.09,201.8-600.45,449.84-600.45c248.04,0,449.84,269.36,449.84,600.45h40C1550.84,1614.02,1538.09,1530.71,1512.96,1452.24z
	 M762.62,752.59c0-164.53,133.85-298.38,298.38-298.38s298.38,133.85,298.38,298.38s-133.85,298.38-298.38,298.38
	S762.62,917.11,762.62,752.59z"/>
</svg>
