<?xml version="1.0" encoding="utf-8"?>
<!-- Generator: Adobe Illustrator 25.2.1, SVG Export Plug-In . SVG Version: 6.00 Build 0)  -->
<svg version="1.1" id="Layer_2_copy" xmlns="http://www.w3.org/2000/svg" xmlns:xlink="http://www.w3.org/1999/xlink" x="0px"
	 y="0px" viewBox="0 0 2122 2122" style="enable-background:new 0 0 2122 2122;" xml:space="preserve">
<style type="text/css">
	.st0{fill:#12100B;}
</style>
<path class="st0" d="M1594.87,943.33c-25.48-35.21-54.38-63.28-85.9-83.45c-9.78-6.26-19.68-11.65-29.67-16.19
	c-1.47-112.92-39.34-218.98-107.07-299.28c-33.88-40.17-73.4-71.74-117.48-93.85c-45.92-23.03-94.74-34.71-145.09-34.71h-97.31
	c-50.35,0-99.17,11.68-145.09,34.71c-44.08,22.11-83.61,53.68-117.48,93.85c-67.73,80.31-105.6,186.36-107.07,299.28
	c-9.99,4.54-19.89,9.94-29.67,16.19c-31.53,20.16-60.43,48.24-85.9,83.45c-48.81,67.46-77.95,151.85-77.95,225.75v227.87
	c0,73.44,28.73,149.93,78.81,209.86c25.34,30.31,54.4,54.35,86.4,71.45c34.62,18.5,70.95,27.88,107.98,27.88h677.27
	c37.03,0,73.36-9.38,107.98-27.88c31.99-17.1,61.06-41.14,86.4-71.45c50.08-59.92,78.81-136.41,78.81-209.86v-227.87
	C1672.82,1095.18,1643.68,1010.79,1594.87,943.33z M1012.35,455.86h97.31c176.1,0,320.4,166.12,329.27,374.32
	c-13-2.84-26.12-4.28-39.29-4.28H722.36c-13.18,0-26.29,1.43-39.29,4.28C691.94,621.98,836.24,455.86,1012.35,455.86z
	 M1632.82,1396.96c0,63.27-25.98,132.13-69.5,184.2c-45.8,54.8-103.94,84.98-163.68,84.98H722.36
	c-59.75,0-117.88-30.18-163.68-84.98c-43.52-52.07-69.5-120.93-69.5-184.2v-227.87c0-64.81,26.96-142.33,70.36-202.31
	c16.88-23.33,45.33-56.45,83.1-78.29v77.41h40v-94.48c12.55-3.51,25.81-5.52,39.73-5.52h677.27c13.92,0,27.18,2.01,39.72,5.52v94.48
	h40v-77.41c37.77,21.84,66.22,54.96,83.1,78.29c43.4,59.98,70.36,137.5,70.36,202.31V1396.96z"/>
</svg>
