<?xml version="1.0" encoding="utf-8"?>
<!-- Generator: Adobe Illustrator 25.2.1, SVG Export Plug-In . SVG Version: 6.00 Build 0)  -->
<svg version="1.1" id="Layer_4_-_copie" xmlns="http://www.w3.org/2000/svg" xmlns:xlink="http://www.w3.org/1999/xlink" x="0px"
	 y="0px" viewBox="0 0 2122 2122" style="enable-background:new 0 0 2122 2122;" xml:space="preserve">
<style type="text/css">
	.st0{fill:#12100B;}
</style>
<g>
	<path class="st0" d="M1066.12,1707.79c-87.31,0-172.01-17.1-251.77-50.84c-77.02-32.58-146.19-79.21-205.58-138.6
		s-106.03-128.56-138.61-205.58c-33.73-79.75-50.84-164.46-50.84-251.77s17.1-172.01,50.84-251.77
		c32.58-77.02,79.21-146.19,138.61-205.58s128.56-106.03,205.58-138.6c79.75-33.73,164.46-50.84,251.77-50.84
		s172.01,17.1,251.77,50.84c77.02,32.58,146.19,79.21,205.58,138.6s106.03,128.56,138.6,205.58
		c33.73,79.75,50.84,164.46,50.84,251.77s-17.1,172.01-50.84,251.77c-32.58,77.02-79.21,146.19-138.6,205.58
		s-128.56,106.03-205.58,138.6C1238.13,1690.69,1153.43,1707.79,1066.12,1707.79z M1066.12,454.21
		c-334.59,0-606.79,272.21-606.79,606.79c0,334.59,272.21,606.79,606.79,606.79c334.59,0,606.79-272.21,606.79-606.79
		C1672.91,726.41,1400.71,454.21,1066.12,454.21z"/>
	<g>
		<path d="M921.25,969.03v18.58h-37.16v-18.58c0-105.92,82.69-167.24,176.53-166.31c92.91,0.93,176.53,63.18,176.53,167.24
			c0,128.22-157.02,141.23-157.02,259.23v0.93c-0.93,22.3,0,31.59,0,37.16v18.58h-37.16v-18.58c0-5.57-0.93-14.87,0-38.09
			c0-152.38,157.95-164.45,157.02-259.23c0-81.76-66.9-129.15-139.37-130.08C987.21,838.95,921.25,885.41,921.25,969.03z
			 M1042.96,1415.94v-18.58h37.16v18.58v1.86v18.58h-37.16v-18.58V1415.94z"/>
	</g>
</g>
</svg>
