<?xml version="1.0" encoding="utf-8"?>
<!-- Generator: Adobe Illustrator 26.0.3, SVG Export Plug-In . SVG Version: 6.00 Build 0)  -->
<svg version="1.1" id="Calque_2_-_copie" xmlns="http://www.w3.org/2000/svg" xmlns:xlink="http://www.w3.org/1999/xlink" x="0px"
	 y="0px" viewBox="-49 141 512 512" style="enable-background:new -49 141 512 512;" xml:space="preserve">
<g>
	<path d="M384.02,608.75c0,15.75-12.81,28.56-28.56,28.56h-296c-15.75,0-28.56-12.81-28.56-28.56V448.79h-8v159.96
		c0,20.16,16.4,36.56,36.56,36.56h296c20.16,0,36.56-16.4,36.56-36.56V454.07h-8V608.75z"/>
	<path d="M207,339.75l50.11,98.19h205.39l-57.01-111.7H213.9H200.1H8.5l-57.01,111.7h205.39L207,339.75z M400.6,334.24l48.84,95.7
		H262.01l-48.84-95.7H400.6z M-35.44,429.94l48.84-95.7h187.43l-48.84,95.7H-35.44z"/>
	<rect x="202.63" y="378.31" width="8" height="247"/>
	<path d="M205.44,312.31c45.11,0,81.81-36.7,81.81-81.81s-36.7-81.81-81.81-81.81s-81.81,36.7-81.81,81.81
		S160.33,312.31,205.44,312.31z M205.44,156.69c40.7,0,73.81,33.11,73.81,73.81s-33.11,73.81-73.81,73.81s-73.81-33.11-73.81-73.81
		S164.74,156.69,205.44,156.69z"/>
	<path d="M206.63,246.33c5.09,0,9.61-2.42,12.51-6.16l34.81,14.34l3.05-7.4l-34.72-14.3c0.11-0.76,0.19-1.53,0.19-2.32
		c0-7.39-5.09-13.59-11.95-15.33v-36.74h-8v36.8c-6.74,1.82-11.72,7.97-11.72,15.27C190.8,239.23,197.9,246.33,206.63,246.33z
		 M206.63,222.67c4.32,0,7.83,3.51,7.83,7.83s-3.51,7.83-7.83,7.83c-4.32,0-7.83-3.51-7.83-7.83S202.31,222.67,206.63,222.67z"/>
</g>
</svg>
